# xmcd CD database file
# Copyright (C) 1993-1998 Ti Kan
# 
# Track frame offsets:
#     150
#     19560
#     34797
#     52167
#     65755
#     81815
#     97300
#     115672
#     130120
#     148557
# 
# Disc length: 2196 seconds
# 
# Revision: 1
# Processed by: cddbd v1.4b41PL1 Copyright (c) Steve Scherf et al.
# Submitted via: DiscPlay 4.0.4
# 
DISCID=8a08920a
DTITLE=John Mooney - Telephone King
DYEAR=1900
DGENRE=
TTITLE0=Wibble Whim She When She Walk
TTITLE1=Whatcha Gonna Do
TTITLE2=Telephone King
TTITLE3=Let me Go
TTITLE4=Please Baby Please
TTITLE5=Oh Louise
TTITLE6=Rainin' Down on My Broken Heart
TTITLE7=Ain't Done Wrong
TTITLE8=Coal Stove Mama
TTITLE9=Please Please Please
EXTD=
EXTT0=
EXTT1=
EXTT2=
EXTT3=
EXTT4=
EXTT5=
EXTT6=
EXTT7=
EXTT8=
EXTT9=
PLAYORDER=
